<svg xmlns="http://www.w3.org/2000/svg" xmlns:xlink="http://www.w3.org/1999/xlink" width="500" zoomAndPan="magnify" viewBox="0 0 375 374.999991" height="500" preserveAspectRatio="xMidYMid meet" version="1.0"><defs><g/><clipPath id="id1"><path d="M 0 175.144531 L 375 175.144531 L 375 199.894531 L 0 199.894531 Z M 0 175.144531 " clip-rule="nonzero"/></clipPath></defs><g fill="#ffffff" fill-opacity="1"><g transform="translate(37.968752, 222.482827)"><g><path d="M 24.78125 0 L 24.78125 -65.28125 L 4.59375 -65.28125 L 5.09375 -71.40625 L 51.3125 -71.40625 L 50.796875 -65.28125 L 31.21875 -65.28125 L 31.21875 0 Z M 24.78125 0 "/></g></g></g><g fill="#ffffff" fill-opacity="1"><g transform="translate(93.864714, 222.482827)"><g><path d="M 44.78125 -65.28125 L 15.09375 -65.28125 L 15.09375 -38.453125 L 42.640625 -38.453125 L 42.125 -32.328125 L 15.09375 -32.328125 L 15.09375 -6.125 L 47.328125 -6.125 L 46.8125 0 L 8.15625 0 L 8.15625 -71.40625 L 45.28125 -71.40625 Z M 44.78125 -65.28125 "/></g></g></g><g fill="#ffffff" fill-opacity="1"><g transform="translate(145.272681, 222.482827)"><g><path d="M 49.15625 -18.875 L 17.75 -18.875 L 11.21875 0 L 4.59375 0 L 30.390625 -71.40625 L 36.625 -71.40625 L 63.34375 0 L 55.890625 0 Z M 19.484375 -23.96875 L 47.328125 -23.96875 L 33.15625 -63.640625 Z M 19.484375 -23.96875 "/></g></g></g><g fill="#ffffff" fill-opacity="1"><g transform="translate(213.816641, 222.482827)"><g><path d="M 50.1875 -63.859375 C 46.71875 -65.210938 43.078125 -65.890625 39.265625 -65.890625 C 31.585938 -65.890625 25.382812 -63.066406 20.65625 -57.421875 C 15.925781 -51.773438 13.5625 -43.507812 13.5625 -32.625 C 13.5625 -21.75 16.046875 -14.140625 21.015625 -9.796875 C 24.410156 -6.734375 29.132812 -5.203125 35.1875 -5.203125 C 39.0625 -5.203125 42.953125 -5.644531 46.859375 -6.53125 C 50.773438 -7.414062 53.445312 -8.265625 54.875 -9.078125 L 56.296875 -4.078125 C 53.304688 -2.109375 48.070312 -0.75 40.59375 0 C 38.414062 0.269531 36.117188 0.40625 33.703125 0.40625 C 31.296875 0.40625 28.457031 0.015625 25.1875 -0.765625 C 21.925781 -1.546875 18.898438 -3.128906 16.109375 -5.515625 C 9.785156 -10.878906 6.625 -19.816406 6.625 -32.328125 C 6.625 -44.847656 9.597656 -54.523438 15.546875 -61.359375 C 21.503906 -68.191406 29.242188 -71.609375 38.765625 -71.609375 C 44.066406 -71.609375 48.617188 -70.550781 52.421875 -68.4375 C 53.847656 -67.6875 54.972656 -66.875 55.796875 -66 L 55.796875 -51.203125 L 50.6875 -50.890625 Z M 50.1875 -63.859375 "/></g></g></g><g fill="#ffffff" fill-opacity="1"><g transform="translate(274.20061, 222.482827)"><g><path d="M 7.65625 0 L 7.65625 -71.40625 L 14.078125 -71.40625 L 14.078125 -38.453125 L 48.75 -38.453125 L 48.75 -71.40625 L 55.1875 -71.40625 L 55.1875 0 L 48.75 0 L 48.75 -32.328125 L 14.078125 -32.328125 L 14.078125 0 Z M 7.65625 0 "/></g></g></g><g clip-path="url(#id1)"><path fill="#000000" d="M 0.0625 175.144531 L 374.9375 175.144531 L 374.9375 199.894531 L 0.0625 199.894531 L 0.0625 175.144531 " fill-opacity="1" fill-rule="nonzero"/></g><g fill="#ffffff" fill-opacity="1"><g transform="translate(77.349227, 191.27555)"><g><path d="M 0.429688 -3.828125 C 0.429688 -2.757812 0.890625 -1.78125 1.550781 -1.078125 C 2.222656 -0.375 3.1875 0.0546875 4.234375 0.0546875 C 6.023438 0.0546875 7.433594 -1.132812 7.871094 -2.878906 L 6.785156 -2.878906 C 6.386719 -1.714844 5.398438 -1.042969 4.234375 -1.042969 C 3.496094 -1.042969 2.757812 -1.351562 2.277344 -1.859375 C 1.792969 -2.363281 1.507812 -3.054688 1.507812 -3.828125 C 1.507812 -4.617188 1.804688 -5.300781 2.285156 -5.804688 C 2.769531 -6.3125 3.496094 -6.664062 4.234375 -6.664062 C 5.367188 -6.664062 6.3125 -6.046875 6.71875 -4.894531 L 7.816406 -4.894531 C 7.378906 -6.628906 5.992188 -7.761719 4.234375 -7.761719 C 3.1875 -7.761719 2.1875 -7.277344 1.515625 -6.585938 C 0.859375 -5.882812 0.429688 -4.914062 0.429688 -3.828125 Z M 0.429688 -3.828125 "/></g></g></g><g fill="#ffffff" fill-opacity="1"><g transform="translate(94.437389, 191.27555)"><g><path d="M 0.386719 -3.847656 C 0.386719 -1.628906 2.15625 0.144531 4.375 0.144531 C 6.597656 0.144531 8.378906 -1.628906 8.378906 -3.847656 C 8.378906 -6.070312 6.597656 -7.851562 4.375 -7.851562 C 2.15625 -7.851562 0.386719 -6.070312 0.386719 -3.847656 Z M 1.527344 -3.847656 C 1.527344 -5.429688 2.792969 -6.707031 4.375 -6.707031 C 5.960938 -6.707031 7.234375 -5.429688 7.234375 -3.847656 C 7.234375 -2.265625 5.960938 -1 4.375 -1 C 2.792969 -1 1.527344 -2.265625 1.527344 -3.847656 Z M 1.527344 -3.847656 "/></g></g></g><g fill="#ffffff" fill-opacity="1"><g transform="translate(112.075165, 191.27555)"><g><path d="M 0.945312 -7.695312 L 0.945312 0 L 2.054688 0 L 2.054688 -5.375 L 5.773438 0 L 6.652344 0 L 6.652344 -7.695312 L 5.550781 -7.695312 L 5.550781 -2.277344 L 1.804688 -7.695312 Z M 0.945312 -7.695312 "/></g></g></g><g fill="#ffffff" fill-opacity="1"><g transform="translate(128.470811, 191.27555)"><g><path d="M 0.945312 -7.695312 L 0.945312 0 L 2.054688 0 L 2.054688 -5.375 L 5.773438 0 L 6.652344 0 L 6.652344 -7.695312 L 5.550781 -7.695312 L 5.550781 -2.277344 L 1.804688 -7.695312 Z M 0.945312 -7.695312 "/></g></g></g><g fill="#ffffff" fill-opacity="1"><g transform="translate(144.866458, 191.27555)"><g><path d="M 5.640625 -1.109375 L 2.066406 -1.109375 L 2.066406 -3.375 L 5.550781 -3.375 L 5.550781 -4.496094 L 2.066406 -4.496094 L 2.066406 -6.664062 L 5.628906 -6.664062 L 5.628906 -7.773438 L 0.945312 -7.773438 L 0.945312 0 L 5.640625 0 Z M 5.640625 -1.109375 "/></g></g></g><g fill="#ffffff" fill-opacity="1"><g transform="translate(159.800144, 191.27555)"><g><path d="M 0.429688 -3.828125 C 0.429688 -2.757812 0.890625 -1.78125 1.550781 -1.078125 C 2.222656 -0.375 3.1875 0.0546875 4.234375 0.0546875 C 6.023438 0.0546875 7.433594 -1.132812 7.871094 -2.878906 L 6.785156 -2.878906 C 6.386719 -1.714844 5.398438 -1.042969 4.234375 -1.042969 C 3.496094 -1.042969 2.757812 -1.351562 2.277344 -1.859375 C 1.792969 -2.363281 1.507812 -3.054688 1.507812 -3.828125 C 1.507812 -4.617188 1.804688 -5.300781 2.285156 -5.804688 C 2.769531 -6.3125 3.496094 -6.664062 4.234375 -6.664062 C 5.367188 -6.664062 6.3125 -6.046875 6.71875 -4.894531 L 7.816406 -4.894531 C 7.378906 -6.628906 5.992188 -7.761719 4.234375 -7.761719 C 3.1875 -7.761719 2.1875 -7.277344 1.515625 -6.585938 C 0.859375 -5.882812 0.429688 -4.914062 0.429688 -3.828125 Z M 0.429688 -3.828125 "/></g></g></g><g fill="#ffffff" fill-opacity="1"><g transform="translate(176.888306, 191.27555)"><g><path d="M 2.398438 -6.71875 L 2.398438 0 L 3.507812 0 L 3.507812 -6.71875 L 5.828125 -6.71875 L 5.828125 -7.773438 L 0.0664062 -7.773438 L 0.0664062 -6.71875 Z M 2.398438 -6.71875 "/></g></g></g><g fill="#ffffff" fill-opacity="1"><g transform="translate(191.591148, 191.27555)"><g/></g></g><g fill="#ffffff" fill-opacity="1"><g transform="translate(203.128233, 191.27555)"><g><path d="M 2.296875 -4.332031 L 0.351562 -4.332031 L 0.351562 -3.34375 L 2.296875 -3.34375 L 2.296875 -1.011719 L 3.363281 -1.011719 L 3.363281 -3.34375 L 5.355469 -3.34375 L 5.355469 -4.332031 L 3.363281 -4.332031 L 3.363281 -6.386719 L 2.296875 -6.386719 Z M 2.296875 -4.332031 "/></g></g></g><g fill="#ffffff" fill-opacity="1"><g transform="translate(217.930021, 191.27555)"><g/></g></g><g fill="#ffffff" fill-opacity="1"><g transform="translate(229.467107, 191.27555)"><g><path d="M 5.671875 -1.109375 L 2.054688 -1.109375 L 2.054688 -7.695312 L 0.945312 -7.695312 L 0.945312 0 L 5.671875 0 Z M 5.671875 -1.109375 "/></g></g></g><g fill="#ffffff" fill-opacity="1"><g transform="translate(243.994076, 191.27555)"><g><path d="M 5.640625 -1.109375 L 2.066406 -1.109375 L 2.066406 -3.375 L 5.550781 -3.375 L 5.550781 -4.496094 L 2.066406 -4.496094 L 2.066406 -6.664062 L 5.628906 -6.664062 L 5.628906 -7.773438 L 0.945312 -7.773438 L 0.945312 0 L 5.640625 0 Z M 5.640625 -1.109375 "/></g></g></g><g fill="#ffffff" fill-opacity="1"><g transform="translate(258.927768, 191.27555)"><g><path d="M 1.902344 -1.945312 L 5.023438 -1.945312 L 5.761719 0 L 6.949219 0 L 3.859375 -7.796875 L 3.046875 -7.796875 L -0.0429688 0 L 1.15625 0 Z M 4.617188 -2.992188 L 2.308594 -2.992188 L 3.464844 -6.023438 Z M 4.617188 -2.992188 "/></g></g></g><g fill="#ffffff" fill-opacity="1"><g transform="translate(274.696856, 191.27555)"><g><path d="M 3.75 -3.902344 L 2.453125 -3.902344 L 2.453125 -3.375 L 5.253906 0 L 6.695312 0 L 4.265625 -2.890625 C 5.585938 -3.121094 6.257812 -4.15625 6.257812 -5.246094 C 6.257812 -6.464844 5.421875 -7.796875 3.75 -7.796875 L 0.945312 -7.796875 L 0.945312 0 L 2.046875 0 L 2.046875 -6.675781 L 3.75 -6.675781 C 4.683594 -6.675781 5.144531 -5.90625 5.144531 -5.246094 C 5.144531 -4.574219 4.683594 -3.902344 3.75 -3.902344 Z M 3.75 -3.902344 "/></g></g></g><g fill="#ffffff" fill-opacity="1"><g transform="translate(290.048234, 191.27555)"><g><path d="M 0.945312 -7.695312 L 0.945312 0 L 2.054688 0 L 2.054688 -5.375 L 5.773438 0 L 6.652344 0 L 6.652344 -7.695312 L 5.550781 -7.695312 L 5.550781 -2.277344 L 1.804688 -7.695312 Z M 0.945312 -7.695312 "/></g></g></g></svg>