<svg xmlns="http://www.w3.org/2000/svg" xmlns:xlink="http://www.w3.org/1999/xlink" width="500" zoomAndPan="magnify" viewBox="0 0 375 374.999991" height="500" preserveAspectRatio="xMidYMid meet" version="1.0"><defs><g/><clipPath id="id1"><path d="M 0 0 L 375 0 L 375 17.214844 L 0 17.214844 Z M 357.785156 17.214844 L 375 17.214844 L 375 357.785156 L 357.785156 357.785156 Z M 0 17.214844 L 17.214844 17.214844 L 17.214844 357.785156 L 0 357.785156 Z M 0 357.785156 L 375 357.785156 L 375 375 L 0 375 Z M 0 357.785156 " clip-rule="nonzero"/></clipPath><linearGradient x1="17.709472" gradientTransform="matrix(1.721526, 0, 0, 1.721526, 0.0000045, 0)" y1="-13.223859" x2="200.116556" gradientUnits="userSpaceOnUse" y2="231.056815" id="id2"><stop stop-opacity="1" stop-color="rgb(84.298706%, 81.999207%, 90.19928%)" offset="0"/><stop stop-opacity="1" stop-color="rgb(84.481812%, 82.115173%, 90.25116%)" offset="0.125"/><stop stop-opacity="1" stop-color="rgb(84.806824%, 82.324219%, 90.344238%)" offset="0.132812"/><stop stop-opacity="1" stop-color="rgb(85.092163%, 82.505798%, 90.426636%)" offset="0.140625"/><stop stop-opacity="1" stop-color="rgb(85.375977%, 82.687378%, 90.507507%)" offset="0.148437"/><stop stop-opacity="1" stop-color="rgb(85.661316%, 82.868958%, 90.589905%)" offset="0.15625"/><stop stop-opacity="1" stop-color="rgb(85.945129%, 83.052063%, 90.670776%)" offset="0.164062"/><stop stop-opacity="1" stop-color="rgb(86.230469%, 83.233643%, 90.753174%)" offset="0.171875"/><stop stop-opacity="1" stop-color="rgb(86.514282%, 83.415222%, 90.834045%)" offset="0.179687"/><stop stop-opacity="1" stop-color="rgb(86.799622%, 83.598328%, 90.916443%)" offset="0.1875"/><stop stop-opacity="1" stop-color="rgb(87.084961%, 83.779907%, 90.997314%)" offset="0.195312"/><stop stop-opacity="1" stop-color="rgb(87.368774%, 83.961487%, 91.079712%)" offset="0.203125"/><stop stop-opacity="1" stop-color="rgb(87.654114%, 84.143066%, 91.162109%)" offset="0.210937"/><stop stop-opacity="1" stop-color="rgb(87.937927%, 84.326172%, 91.242981%)" offset="0.21875"/><stop stop-opacity="1" stop-color="rgb(88.223267%, 84.507751%, 91.325378%)" offset="0.226562"/><stop stop-opacity="1" stop-color="rgb(88.50708%, 84.689331%, 91.40625%)" offset="0.234375"/><stop stop-opacity="1" stop-color="rgb(88.792419%, 84.872437%, 91.488647%)" offset="0.242187"/><stop stop-opacity="1" stop-color="rgb(89.077759%, 85.054016%, 91.569519%)" offset="0.25"/><stop stop-opacity="1" stop-color="rgb(89.361572%, 85.235596%, 91.651917%)" offset="0.257812"/><stop stop-opacity="1" stop-color="rgb(89.646912%, 85.417175%, 91.732788%)" offset="0.265625"/><stop stop-opacity="1" stop-color="rgb(89.930725%, 85.600281%, 91.815186%)" offset="0.273437"/><stop stop-opacity="1" stop-color="rgb(90.216064%, 85.78186%, 91.896057%)" offset="0.28125"/><stop stop-opacity="1" stop-color="rgb(90.501404%, 85.96344%, 91.978455%)" offset="0.289062"/><stop stop-opacity="1" stop-color="rgb(90.785217%, 86.146545%, 92.059326%)" offset="0.296875"/><stop stop-opacity="1" stop-color="rgb(91.070557%, 86.328125%, 92.141724%)" offset="0.304688"/><stop stop-opacity="1" stop-color="rgb(91.35437%, 86.509705%, 92.222595%)" offset="0.3125"/><stop stop-opacity="1" stop-color="rgb(91.639709%, 86.691284%, 92.304993%)" offset="0.320312"/><stop stop-opacity="1" stop-color="rgb(91.923523%, 86.87439%, 92.385864%)" offset="0.328125"/><stop stop-opacity="1" stop-color="rgb(92.208862%, 87.055969%, 92.468262%)" offset="0.335937"/><stop stop-opacity="1" stop-color="rgb(92.494202%, 87.237549%, 92.549133%)" offset="0.34375"/><stop stop-opacity="1" stop-color="rgb(92.778015%, 87.420654%, 92.631531%)" offset="0.351562"/><stop stop-opacity="1" stop-color="rgb(93.063354%, 87.602234%, 92.713928%)" offset="0.359375"/><stop stop-opacity="1" stop-color="rgb(93.347168%, 87.783813%, 92.7948%)" offset="0.367187"/><stop stop-opacity="1" stop-color="rgb(93.632507%, 87.965393%, 92.877197%)" offset="0.375"/><stop stop-opacity="1" stop-color="rgb(93.916321%, 88.148499%, 92.958069%)" offset="0.382812"/><stop stop-opacity="1" stop-color="rgb(94.20166%, 88.330078%, 93.040466%)" offset="0.390625"/><stop stop-opacity="1" stop-color="rgb(94.487%, 88.511658%, 93.121338%)" offset="0.398437"/><stop stop-opacity="1" stop-color="rgb(94.770813%, 88.694763%, 93.203735%)" offset="0.40625"/><stop stop-opacity="1" stop-color="rgb(95.056152%, 88.876343%, 93.284607%)" offset="0.414062"/><stop stop-opacity="1" stop-color="rgb(95.339966%, 89.057922%, 93.367004%)" offset="0.421875"/><stop stop-opacity="1" stop-color="rgb(95.625305%, 89.239502%, 93.447876%)" offset="0.427495"/><stop stop-opacity="1" stop-color="rgb(95.767212%, 89.331055%, 93.489075%)" offset="0.429687"/><stop stop-opacity="1" stop-color="rgb(95.909119%, 89.422607%, 93.530273%)" offset="0.4375"/><stop stop-opacity="1" stop-color="rgb(95.970154%, 89.620972%, 93.644714%)" offset="0.46875"/><stop stop-opacity="1" stop-color="rgb(95.76416%, 89.712524%, 93.721008%)" offset="0.476562"/><stop stop-opacity="1" stop-color="rgb(95.513916%, 89.682007%, 93.728638%)" offset="0.484375"/><stop stop-opacity="1" stop-color="rgb(95.262146%, 89.653015%, 93.736267%)" offset="0.492187"/><stop stop-opacity="1" stop-color="rgb(95.011902%, 89.624023%, 93.743896%)" offset="0.5"/><stop stop-opacity="1" stop-color="rgb(94.761658%, 89.593506%, 93.751526%)" offset="0.507812"/><stop stop-opacity="1" stop-color="rgb(94.511414%, 89.564514%, 93.759155%)" offset="0.515625"/><stop stop-opacity="1" stop-color="rgb(94.259644%, 89.535522%, 93.766785%)" offset="0.523438"/><stop stop-opacity="1" stop-color="rgb(94.009399%, 89.505005%, 93.774414%)" offset="0.53125"/><stop stop-opacity="1" stop-color="rgb(93.759155%, 89.476013%, 93.782043%)" offset="0.539062"/><stop stop-opacity="1" stop-color="rgb(93.508911%, 89.445496%, 93.789673%)" offset="0.546875"/><stop stop-opacity="1" stop-color="rgb(93.257141%, 89.416504%, 93.797302%)" offset="0.554687"/><stop stop-opacity="1" stop-color="rgb(93.006897%, 89.387512%, 93.804932%)" offset="0.5625"/><stop stop-opacity="1" stop-color="rgb(92.756653%, 89.356995%, 93.812561%)" offset="0.570312"/><stop stop-opacity="1" stop-color="rgb(92.504883%, 89.328003%, 93.82019%)" offset="0.572505"/><stop stop-opacity="1" stop-color="rgb(92.379761%, 89.31427%, 93.824768%)" offset="0.578125"/><stop stop-opacity="1" stop-color="rgb(92.254639%, 89.299011%, 93.82782%)" offset="0.585937"/><stop stop-opacity="1" stop-color="rgb(92.004395%, 89.268494%, 93.835449%)" offset="0.59375"/><stop stop-opacity="1" stop-color="rgb(91.75415%, 89.239502%, 93.843079%)" offset="0.601562"/><stop stop-opacity="1" stop-color="rgb(91.50238%, 89.21051%, 93.850708%)" offset="0.609375"/><stop stop-opacity="1" stop-color="rgb(91.252136%, 89.179993%, 93.858337%)" offset="0.617188"/><stop stop-opacity="1" stop-color="rgb(91.001892%, 89.151001%, 93.865967%)" offset="0.625"/><stop stop-opacity="1" stop-color="rgb(90.750122%, 89.120483%, 93.873596%)" offset="0.632812"/><stop stop-opacity="1" stop-color="rgb(90.499878%, 89.091492%, 93.881226%)" offset="0.640625"/><stop stop-opacity="1" stop-color="rgb(90.249634%, 89.0625%, 93.888855%)" offset="0.648437"/><stop stop-opacity="1" stop-color="rgb(89.99939%, 89.031982%, 93.896484%)" offset="0.65625"/><stop stop-opacity="1" stop-color="rgb(89.74762%, 89.002991%, 93.904114%)" offset="0.664062"/><stop stop-opacity="1" stop-color="rgb(89.497375%, 88.973999%, 93.911743%)" offset="0.671875"/><stop stop-opacity="1" stop-color="rgb(89.247131%, 88.943481%, 93.919373%)" offset="0.679687"/><stop stop-opacity="1" stop-color="rgb(88.995361%, 88.91449%, 93.927002%)" offset="0.6875"/><stop stop-opacity="1" stop-color="rgb(88.745117%, 88.885498%, 93.934631%)" offset="0.695312"/><stop stop-opacity="1" stop-color="rgb(88.494873%, 88.85498%, 93.942261%)" offset="0.703125"/><stop stop-opacity="1" stop-color="rgb(88.244629%, 88.825989%, 93.94989%)" offset="0.710937"/><stop stop-opacity="1" stop-color="rgb(87.992859%, 88.795471%, 93.95752%)" offset="0.71875"/><stop stop-opacity="1" stop-color="rgb(87.742615%, 88.766479%, 93.965149%)" offset="0.726562"/><stop stop-opacity="1" stop-color="rgb(87.492371%, 88.737488%, 93.972778%)" offset="0.734375"/><stop stop-opacity="1" stop-color="rgb(87.240601%, 88.70697%, 93.980408%)" offset="0.742187"/><stop stop-opacity="1" stop-color="rgb(86.990356%, 88.677979%, 93.988037%)" offset="0.75"/><stop stop-opacity="1" stop-color="rgb(86.740112%, 88.648987%, 93.995667%)" offset="0.757812"/><stop stop-opacity="1" stop-color="rgb(86.489868%, 88.618469%, 94.003296%)" offset="0.765625"/><stop stop-opacity="1" stop-color="rgb(86.238098%, 88.589478%, 94.010925%)" offset="0.773437"/><stop stop-opacity="1" stop-color="rgb(85.987854%, 88.560486%, 94.018555%)" offset="0.78125"/><stop stop-opacity="1" stop-color="rgb(85.73761%, 88.529968%, 94.026184%)" offset="0.789062"/><stop stop-opacity="1" stop-color="rgb(85.48584%, 88.500977%, 94.033813%)" offset="0.796875"/><stop stop-opacity="1" stop-color="rgb(85.235596%, 88.470459%, 94.041443%)" offset="0.804687"/><stop stop-opacity="1" stop-color="rgb(84.985352%, 88.441467%, 94.049072%)" offset="0.8125"/><stop stop-opacity="1" stop-color="rgb(84.735107%, 88.412476%, 94.056702%)" offset="0.820312"/><stop stop-opacity="1" stop-color="rgb(84.483337%, 88.381958%, 94.064331%)" offset="0.828125"/><stop stop-opacity="1" stop-color="rgb(84.233093%, 88.352966%, 94.07196%)" offset="0.835937"/><stop stop-opacity="1" stop-color="rgb(83.982849%, 88.323975%, 94.07959%)" offset="0.84375"/><stop stop-opacity="1" stop-color="rgb(83.731079%, 88.293457%, 94.087219%)" offset="0.851562"/><stop stop-opacity="1" stop-color="rgb(83.480835%, 88.264465%, 94.094849%)" offset="0.859375"/><stop stop-opacity="1" stop-color="rgb(83.230591%, 88.235474%, 94.102478%)" offset="0.867187"/><stop stop-opacity="1" stop-color="rgb(82.980347%, 88.204956%, 94.110107%)" offset="0.875"/><stop stop-opacity="1" stop-color="rgb(82.728577%, 88.175964%, 94.117737%)" offset="0.882812"/><stop stop-opacity="1" stop-color="rgb(82.478333%, 88.145447%, 94.125366%)" offset="0.890625"/><stop stop-opacity="1" stop-color="rgb(82.228088%, 88.116455%, 94.132996%)" offset="0.898437"/><stop stop-opacity="1" stop-color="rgb(81.977844%, 88.087463%, 94.140625%)" offset="0.90625"/><stop stop-opacity="1" stop-color="rgb(81.726074%, 88.056946%, 94.148254%)" offset="0.914062"/><stop stop-opacity="1" stop-color="rgb(81.47583%, 88.027954%, 94.155884%)" offset="0.921875"/><stop stop-opacity="1" stop-color="rgb(81.225586%, 87.998962%, 94.163513%)" offset="0.929688"/><stop stop-opacity="1" stop-color="rgb(80.973816%, 87.968445%, 94.171143%)" offset="0.9375"/><stop stop-opacity="1" stop-color="rgb(80.723572%, 87.939453%, 94.178772%)" offset="0.945312"/><stop stop-opacity="1" stop-color="rgb(80.473328%, 87.910461%, 94.186401%)" offset="0.953125"/><stop stop-opacity="1" stop-color="rgb(80.223083%, 87.879944%, 94.194031%)" offset="0.960937"/><stop stop-opacity="1" stop-color="rgb(79.971313%, 87.850952%, 94.20166%)" offset="0.96875"/><stop stop-opacity="1" stop-color="rgb(79.721069%, 87.820435%, 94.20929%)" offset="0.976562"/><stop stop-opacity="1" stop-color="rgb(79.470825%, 87.791443%, 94.216919%)" offset="0.984375"/><stop stop-opacity="1" stop-color="rgb(79.219055%, 87.762451%, 94.224548%)" offset="0.992187"/><stop stop-opacity="1" stop-color="rgb(78.968811%, 87.731934%, 94.232178%)" offset="1"/></linearGradient></defs><g clip-path="url(#id1)"><rect x="-37.5" fill="url(#id2)" width="450" y="-37.499999" height="449.999989"/></g><g fill="#ffe3ef" fill-opacity="1"><g transform="translate(37.500002, 109.033129)"><g><path d="M 46.96875 -58.503906 L 1.753906 -58.503906 L 1.753906 -46.71875 L 18.050781 -46.71875 L 18.050781 0 L 30.671875 0 L 30.671875 -46.71875 L 46.96875 -46.71875 Z M 46.96875 -58.503906 "/></g></g></g><g fill="#ffe3ef" fill-opacity="1"><g transform="translate(89.817794, 109.033129)"><g><path d="M 19.304688 -11.699219 L 19.304688 -23.734375 L 39.613281 -23.734375 L 39.613281 -35.183594 L 19.304688 -35.183594 L 19.304688 -46.800781 L 41.789062 -46.800781 L 41.789062 -58.503906 L 6.6875 -58.503906 L 6.6875 0 L 42.707031 0 L 42.707031 -11.699219 Z M 19.304688 -11.699219 "/></g></g></g><g fill="#ffe3ef" fill-opacity="1"><g transform="translate(140.046208, 109.033129)"><g><path d="M 45.464844 0 L 59.253906 0 L 35.601562 -58.503906 L 23.652344 -58.503906 L 0.667969 0 L 14.125 0 L 18.136719 -11.03125 L 41.371094 -11.03125 Z M 29.753906 -43.039062 L 37.441406 -22.0625 L 22.0625 -22.0625 Z M 29.753906 -43.039062 "/></g></g></g><g fill="#ffe3ef" fill-opacity="1"><g transform="translate(203.563019, 109.033129)"><g><path d="M 33.511719 1.335938 C 47.972656 1.335938 59.339844 -8.359375 62.011719 -22.816406 L 49.226562 -22.816406 C 47.136719 -15.460938 41.203125 -10.78125 33.511719 -10.78125 C 23.566406 -10.78125 16.128906 -18.636719 16.128906 -29.167969 C 16.128906 -39.699219 23.566406 -47.636719 33.511719 -47.636719 C 40.867188 -47.636719 46.71875 -43.292969 49.140625 -36.4375 L 61.761719 -36.4375 C 59.085938 -50.3125 47.722656 -59.757812 33.511719 -59.757812 C 16.296875 -59.757812 3.257812 -46.550781 3.257812 -29.167969 C 3.257812 -11.867188 16.296875 1.335938 33.511719 1.335938 Z M 33.511719 1.335938 "/></g></g></g><g fill="#ffe3ef" fill-opacity="1"><g transform="translate(271.509296, 109.033129)"><g><path d="M 41.371094 -58.503906 L 41.371094 -35.9375 L 19.304688 -35.9375 L 19.304688 -58.503906 L 6.6875 -58.503906 L 6.6875 0 L 19.304688 0 L 19.304688 -24.152344 L 41.371094 -24.152344 L 41.371094 0 L 53.988281 0 L 53.988281 -58.503906 Z M 41.371094 -58.503906 "/></g></g></g><g fill="#ffe3ef" fill-opacity="1"><g transform="translate(37.500002, 261.477801)"><g><path d="M 25.855469 -20.238281 L 17.457031 -20.238281 L 17.457031 -28.941406 L 10.167969 -28.941406 L 10.167969 -20.238281 L 1.769531 -20.238281 L 1.769531 -13.457031 L 10.167969 -13.457031 L 10.167969 -4.503906 L 17.457031 -4.503906 L 17.457031 -13.457031 L 25.855469 -13.457031 Z M 25.855469 -20.238281 "/></g></g></g><g fill="#ffe3ef" fill-opacity="1"><g transform="translate(67.297817, 261.477801)"><g><path d="M 20.289062 0.808594 C 29.042969 0.808594 35.921875 -5.058594 37.542969 -13.8125 L 29.800781 -13.8125 C 28.535156 -9.359375 24.941406 -6.527344 20.289062 -6.527344 C 14.269531 -6.527344 9.765625 -11.28125 9.765625 -17.65625 C 9.765625 -24.03125 14.269531 -28.839844 20.289062 -28.839844 C 24.742188 -28.839844 28.28125 -26.207031 29.75 -22.058594 L 37.390625 -22.058594 C 35.769531 -30.457031 28.890625 -36.175781 20.289062 -36.175781 C 9.867188 -36.175781 1.972656 -28.179688 1.972656 -17.65625 C 1.972656 -7.183594 9.867188 0.808594 20.289062 0.808594 Z M 20.289062 0.808594 "/></g></g></g><g fill="#ffe3ef" fill-opacity="1"><g transform="translate(108.427766, 261.477801)"><g><path d="M 20.84375 0.808594 C 31.621094 0.808594 39.667969 -7.132812 39.667969 -17.707031 C 39.667969 -28.230469 31.621094 -36.175781 20.84375 -36.175781 C 10.019531 -36.175781 1.921875 -28.179688 1.921875 -17.707031 C 1.921875 -7.183594 10.019531 0.808594 20.84375 0.808594 Z M 20.84375 -6.425781 C 14.519531 -6.425781 9.714844 -11.332031 9.714844 -17.707031 C 9.714844 -24.082031 14.519531 -28.941406 20.84375 -28.941406 C 27.167969 -28.941406 31.875 -24.132812 31.875 -17.707031 C 31.875 -11.28125 27.167969 -6.425781 20.84375 -6.425781 Z M 20.84375 -6.425781 "/></g></g></g><g fill="#ffe3ef" fill-opacity="1"><g transform="translate(152.188391, 261.477801)"><g><path d="M 26.460938 -35.417969 L 26.460938 -13.8125 L 10.929688 -35.417969 L 4.046875 -35.417969 L 4.046875 0 L 11.535156 0 L 11.535156 -22.109375 L 27.574219 0 L 34 0 L 34 -35.417969 Z M 26.460938 -35.417969 "/></g></g></g><g fill="#ffe3ef" fill-opacity="1"><g transform="translate(192.357128, 261.477801)"><g><path d="M 26.460938 -35.417969 L 26.460938 -13.8125 L 10.929688 -35.417969 L 4.046875 -35.417969 L 4.046875 0 L 11.535156 0 L 11.535156 -22.109375 L 27.574219 0 L 34 0 L 34 -35.417969 Z M 26.460938 -35.417969 "/></g></g></g><g fill="#ffe3ef" fill-opacity="1"><g transform="translate(232.525853, 261.477801)"><g><path d="M 11.6875 -7.082031 L 11.6875 -14.367188 L 23.980469 -14.367188 L 23.980469 -21.300781 L 11.6875 -21.300781 L 11.6875 -28.332031 L 25.296875 -28.332031 L 25.296875 -35.417969 L 4.046875 -35.417969 L 4.046875 0 L 25.855469 0 L 25.855469 -7.082031 Z M 11.6875 -7.082031 "/></g></g></g><g fill="#ffe3ef" fill-opacity="1"><g transform="translate(262.930743, 261.477801)"><g><path d="M 20.289062 0.808594 C 29.042969 0.808594 35.921875 -5.058594 37.542969 -13.8125 L 29.800781 -13.8125 C 28.535156 -9.359375 24.941406 -6.527344 20.289062 -6.527344 C 14.269531 -6.527344 9.765625 -11.28125 9.765625 -17.65625 C 9.765625 -24.03125 14.269531 -28.839844 20.289062 -28.839844 C 24.742188 -28.839844 28.28125 -26.207031 29.75 -22.058594 L 37.390625 -22.058594 C 35.769531 -30.457031 28.890625 -36.175781 20.289062 -36.175781 C 9.867188 -36.175781 1.972656 -28.179688 1.972656 -17.65625 C 1.972656 -7.183594 9.867188 0.808594 20.289062 0.808594 Z M 20.289062 0.808594 "/></g></g></g><g fill="#ffe3ef" fill-opacity="1"><g transform="translate(304.060692, 261.477801)"><g><path d="M 28.433594 -35.417969 L 1.0625 -35.417969 L 1.0625 -28.28125 L 10.929688 -28.28125 L 10.929688 0 L 18.570312 0 L 18.570312 -28.28125 L 28.433594 -28.28125 Z M 28.433594 -35.417969 "/></g></g></g><g fill="#ffe3ef" fill-opacity="1"><g transform="translate(37.500002, 315.477798)"><g><path d="M 25.855469 -20.238281 L 17.457031 -20.238281 L 17.457031 -28.941406 L 10.167969 -28.941406 L 10.167969 -20.238281 L 1.769531 -20.238281 L 1.769531 -13.457031 L 10.167969 -13.457031 L 10.167969 -4.503906 L 17.457031 -4.503906 L 17.457031 -13.457031 L 25.855469 -13.457031 Z M 25.855469 -20.238281 "/></g></g></g><g fill="#ffe3ef" fill-opacity="1"><g transform="translate(67.297817, 315.477798)"><g><path d="M 11.6875 -7.082031 L 11.6875 -35.417969 L 4.046875 -35.417969 L 4.046875 0 L 25.296875 0 L 25.296875 -7.082031 Z M 11.6875 -7.082031 "/></g></g></g><g fill="#ffe3ef" fill-opacity="1"><g transform="translate(95.830889, 315.477798)"><g><path d="M 11.6875 -7.082031 L 11.6875 -14.367188 L 23.980469 -14.367188 L 23.980469 -21.300781 L 11.6875 -21.300781 L 11.6875 -28.332031 L 25.296875 -28.332031 L 25.296875 -35.417969 L 4.046875 -35.417969 L 4.046875 0 L 25.855469 0 L 25.855469 -7.082031 Z M 11.6875 -7.082031 "/></g></g></g><g fill="#ffe3ef" fill-opacity="1"><g transform="translate(126.23579, 315.477798)"><g><path d="M 27.523438 0 L 35.871094 0 L 21.554688 -35.417969 L 14.320312 -35.417969 L 0.40625 0 L 8.550781 0 L 10.980469 -6.679688 L 25.042969 -6.679688 Z M 18.011719 -26.054688 L 22.667969 -13.355469 L 13.355469 -13.355469 Z M 18.011719 -26.054688 "/></g></g></g><g fill="#ffe3ef" fill-opacity="1"><g transform="translate(164.68448, 315.477798)"><g><path d="M 23.527344 0 L 32.078125 0 L 24.234375 -13.355469 C 28.179688 -15.28125 30.710938 -19.023438 30.710938 -23.679688 C 30.710938 -30.507812 25.398438 -35.417969 18.316406 -35.417969 L 4.046875 -35.417969 L 4.046875 0 L 11.6875 0 L 11.6875 -12.042969 L 16.59375 -12.042969 Z M 11.6875 -28.332031 L 17.808594 -28.332031 C 21.046875 -28.332031 22.917969 -26.359375 22.917969 -23.730469 C 22.917969 -21.046875 21.046875 -19.125 17.808594 -19.125 L 11.6875 -19.125 Z M 11.6875 -28.332031 "/></g></g></g><g fill="#ffe3ef" fill-opacity="1"><g transform="translate(200.249545, 315.477798)"><g><path d="M 26.460938 -35.417969 L 26.460938 -13.8125 L 10.929688 -35.417969 L 4.046875 -35.417969 L 4.046875 0 L 11.535156 0 L 11.535156 -22.109375 L 27.574219 0 L 34 0 L 34 -35.417969 Z M 26.460938 -35.417969 "/></g></g></g></svg>